<svg xmlns="http://www.w3.org/2000/svg" viewBox="0 0 256 256" width="256" height="256">
  <defs>
    <linearGradient id="bg" x1="0" y1="0" x2="1" y2="1">
      <stop offset="0" stop-color="#16243a"/>
      <stop offset="1" stop-color="#0a1220"/>
    </linearGradient>
    <!-- "step" drawn from square blocks on an 11px grid, so it looks the same everywhere (no font needed) -->
    <g id="word">
    <rect x="26" y="101" width="11" height="11"/>
    <rect x="37" y="101" width="11" height="11"/>
    <rect x="48" y="101" width="11" height="11"/>
    <rect x="59" y="101" width="11" height="11"/>
    <rect x="26" y="112" width="11" height="11"/>
    <rect x="26" y="123" width="11" height="11"/>
    <rect x="37" y="123" width="11" height="11"/>
    <rect x="48" y="123" width="11" height="11"/>
    <rect x="59" y="123" width="11" height="11"/>
    <rect x="59" y="134" width="11" height="11"/>
    <rect x="26" y="145" width="11" height="11"/>
    <rect x="37" y="145" width="11" height="11"/>
    <rect x="48" y="145" width="11" height="11"/>
    <rect x="59" y="145" width="11" height="11"/>
    <rect x="92" y="79" width="11" height="11"/>
    <rect x="92" y="90" width="11" height="11"/>
    <rect x="81" y="101" width="11" height="11"/>
    <rect x="92" y="101" width="11" height="11"/>
    <rect x="103" y="101" width="11" height="11"/>
    <rect x="92" y="112" width="11" height="11"/>
    <rect x="92" y="123" width="11" height="11"/>
    <rect x="92" y="134" width="11" height="11"/>
    <rect x="92" y="145" width="11" height="11"/>
    <rect x="103" y="145" width="11" height="11"/>
    <rect x="125" y="101" width="11" height="11"/>
    <rect x="136" y="101" width="11" height="11"/>
    <rect x="147" y="101" width="11" height="11"/>
    <rect x="158" y="101" width="11" height="11"/>
    <rect x="125" y="112" width="11" height="11"/>
    <rect x="158" y="112" width="11" height="11"/>
    <rect x="125" y="123" width="11" height="11"/>
    <rect x="136" y="123" width="11" height="11"/>
    <rect x="147" y="123" width="11" height="11"/>
    <rect x="158" y="123" width="11" height="11"/>
    <rect x="125" y="134" width="11" height="11"/>
    <rect x="125" y="145" width="11" height="11"/>
    <rect x="136" y="145" width="11" height="11"/>
    <rect x="147" y="145" width="11" height="11"/>
    <rect x="158" y="145" width="11" height="11"/>
    <rect x="180" y="101" width="11" height="11"/>
    <rect x="191" y="101" width="11" height="11"/>
    <rect x="202" y="101" width="11" height="11"/>
    <rect x="213" y="101" width="11" height="11"/>
    <rect x="180" y="112" width="11" height="11"/>
    <rect x="213" y="112" width="11" height="11"/>
    <rect x="180" y="123" width="11" height="11"/>
    <rect x="213" y="123" width="11" height="11"/>
    <rect x="180" y="134" width="11" height="11"/>
    <rect x="191" y="134" width="11" height="11"/>
    <rect x="202" y="134" width="11" height="11"/>
    <rect x="213" y="134" width="11" height="11"/>
    <rect x="180" y="145" width="11" height="11"/>
    <rect x="180" y="156" width="11" height="11"/>
    <rect x="180" y="167" width="11" height="11"/>
    </g>
  </defs>

  <!-- Background -->
  <rect x="8" y="8" width="240" height="240" rx="36" fill="url(#bg)" stroke="#2f4a6e" stroke-width="4"/>

  <!-- Blue shadow, offset down-right, then the gold letters on top -->
  <use href="#word" x="5" y="5" fill="#2f7fc4"/>
  <use href="#word" fill="#ffd34d"/>
</svg>
